# MagicaVoxel @ Ephtracy

# group
g Wall ohne Rand

# material
mtllib Wall ohne Rand.mtl
usemtl palette

# normals
vn -1 0 0
vn 1 0 0
vn 0 0 1
vn 0 0 -1
vn 0 -1 0
vn 0 1 0

# texcoords
vt 0.841797 0.5
vt 0.869141 0.5
vt 0.873047 0.5
vt 0.986328 0.5
vt 0.994141 0.5

# verts
v -20 0 12
v -20 0 10
v -20 0 5
v -20 0 4
v -20 0 -4
v -20 0 -5
v -20 0 -10
v -20 0 -12
v -20 2 12
v -20 2 11
v -20 2 10
v -20 2 -10
v -20 2 -11
v -20 2 -12
v -20 3 11
v -20 3 10
v -20 3 -10
v -20 3 -11
v -20 5 11
v -20 5 10
v -20 5 5
v -20 5 -5
v -20 5 -10
v -20 5 -11
v -20 6 12
v -20 6 11
v -20 6 -11
v -20 6 -12
v -20 7 12
v -20 7 11
v -20 7 10
v -20 7 -10
v -20 7 -11
v -20 7 -12
v -20 8 11
v -20 8 10
v -20 8 -10
v -20 8 -11
v -20 10 11
v -20 10 10
v -20 10 4
v -20 10 -4
v -20 10 -10
v -20 10 -11
v -20 11 12
v -20 11 11
v -20 11 10
v -20 11 4
v -20 11 -4
v -20 11 -10
v -20 11 -11
v -20 11 -12
v -20 12 12
v -20 12 11
v -20 12 10
v -20 12 -10
v -20 12 -11
v -20 12 -12
v -20 13 11
v -20 13 10
v -20 13 -10
v -20 13 -11
v -20 15 10
v -20 15 9
v -20 15 -9
v -20 15 -10
v -20 16 9
v -20 16 8
v -20 16 -8
v -20 16 -9
v -20 17 8
v -20 17 7
v -20 17 5
v -20 17 -5
v -20 17 -7
v -20 17 -8
v -20 18 7
v -20 18 5
v -20 18 4
v -20 18 -4
v -20 18 -5
v -20 18 -7
v -20 19 4
v -20 19 2
v -20 19 -2
v -20 19 -4
v -20 20 2
v -20 20 -2
v 20 0 12
v 20 0 10
v 20 0 5
v 20 0 4
v 20 0 -4
v 20 0 -5
v 20 0 -10
v 20 0 -12
v 20 2 12
v 20 2 11
v 20 2 10
v 20 2 -10
v 20 2 -11
v 20 2 -12
v 20 3 11
v 20 3 10
v 20 3 -10
v 20 3 -11
v 20 5 11
v 20 5 10
v 20 5 5
v 20 5 -5
v 20 5 -10
v 20 5 -11
v 20 6 12
v 20 6 11
v 20 6 -11
v 20 6 -12
v 20 7 12
v 20 7 11
v 20 7 10
v 20 7 -10
v 20 7 -11
v 20 7 -12
v 20 8 11
v 20 8 10
v 20 8 -10
v 20 8 -11
v 20 10 11
v 20 10 10
v 20 10 4
v 20 10 -4
v 20 10 -10
v 20 10 -11
v 20 11 12
v 20 11 11
v 20 11 10
v 20 11 4
v 20 11 -4
v 20 11 -10
v 20 11 -11
v 20 11 -12
v 20 12 12
v 20 12 11
v 20 12 10
v 20 12 -10
v 20 12 -11
v 20 12 -12
v 20 13 11
v 20 13 10
v 20 13 -10
v 20 13 -11
v 20 15 10
v 20 15 9
v 20 15 -9
v 20 15 -10
v 20 16 9
v 20 16 8
v 20 16 -8
v 20 16 -9
v 20 17 8
v 20 17 7
v 20 17 5
v 20 17 -5
v 20 17 -7
v 20 17 -8
v 20 18 7
v 20 18 5
v 20 18 4
v 20 18 -4
v 20 18 -5
v 20 18 -7
v 20 19 4
v 20 19 2
v 20 19 -2
v 20 19 -4
v 20 20 2
v 20 20 -2
v -20 0 12
v -20 2 12
v -20 6 12
v -20 7 12
v -20 11 12
v -20 12 12
v 20 0 12
v 20 2 12
v 20 6 12
v 20 7 12
v 20 11 12
v 20 12 12
v -20 2 11
v -20 3 11
v -20 5 11
v -20 6 11
v -20 7 11
v -20 8 11
v -20 10 11
v -20 11 11
v -20 12 11
v -20 13 11
v 20 2 11
v 20 3 11
v 20 5 11
v 20 6 11
v 20 7 11
v 20 8 11
v 20 10 11
v 20 11 11
v 20 12 11
v 20 13 11
v -20 3 10
v -20 5 10
v -20 8 10
v -20 10 10
v -20 13 10
v -20 15 10
v 20 3 10
v 20 5 10
v 20 8 10
v 20 10 10
v 20 13 10
v 20 15 10
v -20 15 9
v -20 16 9
v 20 15 9
v 20 16 9
v -20 16 8
v -20 17 8
v 20 16 8
v 20 17 8
v -20 17 7
v -20 18 7
v 20 17 7
v 20 18 7
v -20 18 4
v -20 19 4
v 20 18 4
v 20 19 4
v -20 19 2
v -20 20 2
v 20 19 2
v 20 20 2
v -20 0 -4
v -20 10 -4
v 20 0 -4
v 20 10 -4
v -20 0 4
v -20 10 4
v 20 0 4
v 20 10 4
v -20 19 -2
v -20 20 -2
v 20 19 -2
v 20 20 -2
v -20 18 -4
v -20 19 -4
v 20 18 -4
v 20 19 -4
v -20 17 -7
v -20 18 -7
v 20 17 -7
v 20 18 -7
v -20 16 -8
v -20 17 -8
v 20 16 -8
v 20 17 -8
v -20 15 -9
v -20 16 -9
v 20 15 -9
v 20 16 -9
v -20 3 -10
v -20 5 -10
v -20 8 -10
v -20 10 -10
v -20 13 -10
v -20 15 -10
v 20 3 -10
v 20 5 -10
v 20 8 -10
v 20 10 -10
v 20 13 -10
v 20 15 -10
v -20 2 -11
v -20 3 -11
v -20 5 -11
v -20 6 -11
v -20 7 -11
v -20 8 -11
v -20 10 -11
v -20 11 -11
v -20 12 -11
v -20 13 -11
v 20 2 -11
v 20 3 -11
v 20 5 -11
v 20 6 -11
v 20 7 -11
v 20 8 -11
v 20 10 -11
v 20 11 -11
v 20 12 -11
v 20 13 -11
v -20 0 -12
v -20 2 -12
v -20 6 -12
v -20 7 -12
v -20 11 -12
v -20 12 -12
v 20 0 -12
v 20 2 -12
v 20 6 -12
v 20 7 -12
v 20 11 -12
v 20 12 -12
v -20 0 12
v 20 0 12
v -20 0 10
v 20 0 10
v -20 0 5
v 20 0 5
v -20 0 4
v 20 0 4
v -20 0 -4
v 20 0 -4
v -20 0 -5
v 20 0 -5
v -20 0 -10
v 20 0 -10
v -20 0 -12
v 20 0 -12
v -20 5 11
v 20 5 11
v -20 5 10
v 20 5 10
v -20 5 -10
v 20 5 -10
v -20 5 -11
v 20 5 -11
v -20 6 12
v 20 6 12
v -20 6 11
v 20 6 11
v -20 6 -11
v 20 6 -11
v -20 6 -12
v 20 6 -12
v -20 10 11
v 20 10 11
v -20 10 10
v 20 10 10
v -20 10 4
v 20 10 4
v -20 10 -4
v 20 10 -4
v -20 10 -10
v 20 10 -10
v -20 10 -11
v 20 10 -11
v -20 11 12
v 20 11 12
v -20 11 11
v 20 11 11
v -20 11 -11
v 20 11 -11
v -20 11 -12
v 20 11 -12
v -20 2 12
v 20 2 12
v -20 2 11
v 20 2 11
v -20 2 -11
v 20 2 -11
v -20 2 -12
v 20 2 -12
v -20 3 11
v 20 3 11
v -20 3 10
v 20 3 10
v -20 3 -10
v 20 3 -10
v -20 3 -11
v 20 3 -11
v -20 7 12
v 20 7 12
v -20 7 11
v 20 7 11
v -20 7 -11
v 20 7 -11
v -20 7 -12
v 20 7 -12
v -20 8 11
v 20 8 11
v -20 8 10
v 20 8 10
v -20 8 -10
v 20 8 -10
v -20 8 -11
v 20 8 -11
v -20 12 12
v 20 12 12
v -20 12 11
v 20 12 11
v -20 12 -11
v 20 12 -11
v -20 12 -12
v 20 12 -12
v -20 13 11
v 20 13 11
v -20 13 10
v 20 13 10
v -20 13 -10
v 20 13 -10
v -20 13 -11
v 20 13 -11
v -20 15 10
v 20 15 10
v -20 15 9
v 20 15 9
v -20 15 -9
v 20 15 -9
v -20 15 -10
v 20 15 -10
v -20 16 9
v 20 16 9
v -20 16 8
v 20 16 8
v -20 16 -8
v 20 16 -8
v -20 16 -9
v 20 16 -9
v -20 17 8
v 20 17 8
v -20 17 7
v 20 17 7
v -20 17 -7
v 20 17 -7
v -20 17 -8
v 20 17 -8
v -20 18 7
v 20 18 7
v -20 18 5
v 20 18 5
v -20 18 4
v 20 18 4
v -20 18 -4
v 20 18 -4
v -20 18 -5
v 20 18 -5
v -20 18 -7
v 20 18 -7
v -20 19 4
v 20 19 4
v -20 19 2
v 20 19 2
v -20 19 -2
v 20 19 -2
v -20 19 -4
v 20 19 -4
v -20 20 2
v 20 20 2
v -20 20 -2
v 20 20 -2

# faces
f 9/5/1 2/5/1 1/5/1
f 10/5/1 2/5/1 9/5/1
f 11/3/1 3/3/1 2/3/1
f 11/5/1 2/5/1 10/5/1
f 12/5/1 8/5/1 7/5/1
f 12/3/1 7/3/1 6/3/1
f 13/5/1 8/5/1 12/5/1
f 14/5/1 8/5/1 13/5/1
f 15/1/1 11/1/1 10/1/1
f 16/3/1 3/3/1 11/3/1
f 16/1/1 11/1/1 15/1/1
f 17/1/1 13/1/1 12/1/1
f 17/3/1 12/3/1 6/3/1
f 18/1/1 13/1/1 17/1/1
f 20/3/1 3/3/1 16/3/1
f 21/2/1 4/2/1 3/2/1
f 21/3/1 3/3/1 20/3/1
f 22/2/1 6/2/1 5/2/1
f 22/3/1 17/3/1 6/3/1
f 23/3/1 17/3/1 22/3/1
f 26/5/1 20/5/1 19/5/1
f 27/5/1 24/5/1 23/5/1
f 29/5/1 26/5/1 25/5/1
f 30/5/1 20/5/1 26/5/1
f 30/5/1 26/5/1 29/5/1
f 31/2/1 21/2/1 20/2/1
f 31/5/1 20/5/1 30/5/1
f 32/5/1 28/5/1 27/5/1
f 32/5/1 27/5/1 23/5/1
f 32/2/1 23/2/1 22/2/1
f 33/5/1 28/5/1 32/5/1
f 34/5/1 28/5/1 33/5/1
f 35/1/1 31/1/1 30/1/1
f 36/2/1 21/2/1 31/2/1
f 36/1/1 31/1/1 35/1/1
f 37/1/1 33/1/1 32/1/1
f 37/2/1 32/2/1 22/2/1
f 38/1/1 33/1/1 37/1/1
f 40/2/1 21/2/1 36/2/1
f 41/2/1 4/2/1 21/2/1
f 41/2/1 21/2/1 40/2/1
f 42/2/1 37/2/1 22/2/1
f 42/2/1 22/2/1 5/2/1
f 43/2/1 37/2/1 42/2/1
f 46/5/1 40/5/1 39/5/1
f 47/2/1 41/2/1 40/2/1
f 47/5/1 40/5/1 46/5/1
f 48/5/1 42/5/1 41/5/1
f 48/2/1 41/2/1 47/2/1
f 49/2/1 43/2/1 42/2/1
f 49/5/1 42/5/1 48/5/1
f 50/5/1 44/5/1 43/5/1
f 50/2/1 43/2/1 49/2/1
f 51/5/1 44/5/1 50/5/1
f 53/5/1 46/5/1 45/5/1
f 53/5/1 47/5/1 46/5/1
f 54/5/1 47/5/1 53/5/1
f 55/4/1 49/4/1 48/4/1
f 55/5/1 47/5/1 54/5/1
f 55/4/1 50/4/1 49/4/1
f 55/4/1 48/4/1 47/4/1
f 56/5/1 52/5/1 51/5/1
f 56/4/1 50/4/1 55/4/1
f 56/5/1 51/5/1 50/5/1
f 57/5/1 52/5/1 56/5/1
f 58/5/1 52/5/1 57/5/1
f 59/1/1 55/1/1 54/1/1
f 60/4/1 56/4/1 55/4/1
f 60/1/1 55/1/1 59/1/1
f 61/1/1 57/1/1 56/1/1
f 61/4/1 56/4/1 60/4/1
f 62/1/1 57/1/1 61/1/1
f 63/4/1 61/4/1 60/4/1
f 64/4/1 61/4/1 63/4/1
f 65/4/1 61/4/1 64/4/1
f 66/4/1 61/4/1 65/4/1
f 67/5/1 65/5/1 64/5/1
f 68/5/1 65/5/1 67/5/1
f 69/5/1 65/5/1 68/5/1
f 70/5/1 65/5/1 69/5/1
f 71/5/1 69/5/1 68/5/1
f 72/5/1 69/5/1 71/5/1
f 73/5/1 69/5/1 72/5/1
f 74/5/1 69/5/1 73/5/1
f 75/5/1 69/5/1 74/5/1
f 76/5/1 69/5/1 75/5/1
f 77/1/1 73/1/1 72/1/1
f 78/5/1 74/5/1 73/5/1
f 78/1/1 73/1/1 77/1/1
f 79/5/1 74/5/1 78/5/1
f 80/5/1 74/5/1 79/5/1
f 81/1/1 75/1/1 74/1/1
f 81/5/1 74/5/1 80/5/1
f 82/1/1 75/1/1 81/1/1
f 83/5/1 80/5/1 79/5/1
f 84/5/1 80/5/1 83/5/1
f 85/5/1 80/5/1 84/5/1
f 86/5/1 80/5/1 85/5/1
f 87/1/1 85/1/1 84/1/1
f 88/1/1 85/1/1 87/1/1
f 89/5/2 90/5/2 97/5/2
f 97/5/2 90/5/2 98/5/2
f 90/3/2 91/3/2 99/3/2
f 98/5/2 90/5/2 99/5/2
f 95/5/2 96/5/2 100/5/2
f 94/3/2 95/3/2 100/3/2
f 100/5/2 96/5/2 101/5/2
f 101/5/2 96/5/2 102/5/2
f 98/1/2 99/1/2 103/1/2
f 99/3/2 91/3/2 104/3/2
f 103/1/2 99/1/2 104/1/2
f 100/1/2 101/1/2 105/1/2
f 94/3/2 100/3/2 105/3/2
f 105/1/2 101/1/2 106/1/2
f 104/3/2 91/3/2 108/3/2
f 91/2/2 92/2/2 109/2/2
f 108/3/2 91/3/2 109/3/2
f 93/2/2 94/2/2 110/2/2
f 94/3/2 105/3/2 110/3/2
f 110/3/2 105/3/2 111/3/2
f 107/5/2 108/5/2 114/5/2
f 111/5/2 112/5/2 115/5/2
f 113/5/2 114/5/2 117/5/2
f 114/5/2 108/5/2 118/5/2
f 117/5/2 114/5/2 118/5/2
f 108/2/2 109/2/2 119/2/2
f 118/5/2 108/5/2 119/5/2
f 115/5/2 116/5/2 120/5/2
f 111/5/2 115/5/2 120/5/2
f 110/2/2 111/2/2 120/2/2
f 120/5/2 116/5/2 121/5/2
f 121/5/2 116/5/2 122/5/2
f 118/1/2 119/1/2 123/1/2
f 119/2/2 109/2/2 124/2/2
f 123/1/2 119/1/2 124/1/2
f 120/1/2 121/1/2 125/1/2
f 110/2/2 120/2/2 125/2/2
f 125/1/2 121/1/2 126/1/2
f 124/2/2 109/2/2 128/2/2
f 109/2/2 92/2/2 129/2/2
f 128/2/2 109/2/2 129/2/2
f 110/2/2 125/2/2 130/2/2
f 93/2/2 110/2/2 130/2/2
f 130/2/2 125/2/2 131/2/2
f 127/5/2 128/5/2 134/5/2
f 128/2/2 129/2/2 135/2/2
f 134/5/2 128/5/2 135/5/2
f 129/5/2 130/5/2 136/5/2
f 135/2/2 129/2/2 136/2/2
f 130/2/2 131/2/2 137/2/2
f 136/5/2 130/5/2 137/5/2
f 131/5/2 132/5/2 138/5/2
f 137/2/2 131/2/2 138/2/2
f 138/5/2 132/5/2 139/5/2
f 133/5/2 134/5/2 141/5/2
f 134/5/2 135/5/2 141/5/2
f 141/5/2 135/5/2 142/5/2
f 136/4/2 137/4/2 143/4/2
f 142/5/2 135/5/2 143/5/2
f 137/4/2 138/4/2 143/4/2
f 135/4/2 136/4/2 143/4/2
f 139/5/2 140/5/2 144/5/2
f 143/4/2 138/4/2 144/4/2
f 138/5/2 139/5/2 144/5/2
f 144/5/2 140/5/2 145/5/2
f 145/5/2 140/5/2 146/5/2
f 142/1/2 143/1/2 147/1/2
f 143/4/2 144/4/2 148/4/2
f 147/1/2 143/1/2 148/1/2
f 144/1/2 145/1/2 149/1/2
f 148/4/2 144/4/2 149/4/2
f 149/1/2 145/1/2 150/1/2
f 148/4/2 149/4/2 151/4/2
f 151/4/2 149/4/2 152/4/2
f 152/4/2 149/4/2 153/4/2
f 153/4/2 149/4/2 154/4/2
f 152/5/2 153/5/2 155/5/2
f 155/5/2 153/5/2 156/5/2
f 156/5/2 153/5/2 157/5/2
f 157/5/2 153/5/2 158/5/2
f 156/5/2 157/5/2 159/5/2
f 159/5/2 157/5/2 160/5/2
f 160/5/2 157/5/2 161/5/2
f 161/5/2 157/5/2 162/5/2
f 162/5/2 157/5/2 163/5/2
f 163/5/2 157/5/2 164/5/2
f 160/1/2 161/1/2 165/1/2
f 161/5/2 162/5/2 166/5/2
f 165/1/2 161/1/2 166/1/2
f 166/5/2 162/5/2 167/5/2
f 167/5/2 162/5/2 168/5/2
f 162/1/2 163/1/2 169/1/2
f 168/5/2 162/5/2 169/5/2
f 169/1/2 163/1/2 170/1/2
f 167/5/2 168/5/2 171/5/2
f 171/5/2 168/5/2 172/5/2
f 172/5/2 168/5/2 173/5/2
f 173/5/2 168/5/2 174/5/2
f 172/1/2 173/1/2 175/1/2
f 175/1/2 173/1/2 176/1/2
f 183/5/3 178/5/3 177/5/3
f 184/5/3 178/5/3 183/5/3
f 185/5/3 180/5/3 179/5/3
f 186/5/3 180/5/3 185/5/3
f 187/5/3 182/5/3 181/5/3
f 188/5/3 182/5/3 187/5/3
f 199/1/3 190/1/3 189/1/3
f 200/1/3 190/1/3 199/1/3
f 201/5/3 192/5/3 191/5/3
f 202/5/3 192/5/3 201/5/3
f 203/1/3 194/1/3 193/1/3
f 204/1/3 194/1/3 203/1/3
f 205/5/3 196/5/3 195/5/3
f 206/5/3 196/5/3 205/5/3
f 207/1/3 198/1/3 197/1/3
f 208/1/3 198/1/3 207/1/3
f 215/3/3 210/3/3 209/3/3
f 216/3/3 210/3/3 215/3/3
f 217/2/3 212/2/3 211/2/3
f 218/2/3 212/2/3 217/2/3
f 219/4/3 214/4/3 213/4/3
f 220/4/3 214/4/3 219/4/3
f 223/5/3 222/5/3 221/5/3
f 224/5/3 222/5/3 223/5/3
f 227/5/3 226/5/3 225/5/3
f 228/5/3 226/5/3 227/5/3
f 231/1/3 230/1/3 229/1/3
f 232/1/3 230/1/3 231/1/3
f 235/5/3 234/5/3 233/5/3
f 236/5/3 234/5/3 235/5/3
f 239/1/3 238/1/3 237/1/3
f 240/1/3 238/1/3 239/1/3
f 243/2/3 242/2/3 241/2/3
f 244/2/3 242/2/3 243/2/3
f 245/2/4 246/2/4 247/2/4
f 247/2/4 246/2/4 248/2/4
f 249/1/4 250/1/4 251/1/4
f 251/1/4 250/1/4 252/1/4
f 253/5/4 254/5/4 255/5/4
f 255/5/4 254/5/4 256/5/4
f 257/1/4 258/1/4 259/1/4
f 259/1/4 258/1/4 260/1/4
f 261/5/4 262/5/4 263/5/4
f 263/5/4 262/5/4 264/5/4
f 265/5/4 266/5/4 267/5/4
f 267/5/4 266/5/4 268/5/4
f 269/3/4 270/3/4 275/3/4
f 275/3/4 270/3/4 276/3/4
f 271/2/4 272/2/4 277/2/4
f 277/2/4 272/2/4 278/2/4
f 273/4/4 274/4/4 279/4/4
f 279/4/4 274/4/4 280/4/4
f 281/1/4 282/1/4 291/1/4
f 291/1/4 282/1/4 292/1/4
f 283/5/4 284/5/4 293/5/4
f 293/5/4 284/5/4 294/5/4
f 285/1/4 286/1/4 295/1/4
f 295/1/4 286/1/4 296/1/4
f 287/5/4 288/5/4 297/5/4
f 297/5/4 288/5/4 298/5/4
f 289/1/4 290/1/4 299/1/4
f 299/1/4 290/1/4 300/1/4
f 301/5/4 302/5/4 307/5/4
f 307/5/4 302/5/4 308/5/4
f 303/5/4 304/5/4 309/5/4
f 309/5/4 304/5/4 310/5/4
f 305/5/4 306/5/4 311/5/4
f 311/5/4 306/5/4 312/5/4
f 315/5/5 314/5/5 313/5/5
f 316/5/5 314/5/5 315/5/5
f 317/3/5 316/3/5 315/3/5
f 318/3/5 316/3/5 317/3/5
f 319/2/5 318/2/5 317/2/5
f 320/2/5 318/2/5 319/2/5
f 323/2/5 322/2/5 321/2/5
f 324/2/5 322/2/5 323/2/5
f 325/3/5 324/3/5 323/3/5
f 326/3/5 324/3/5 325/3/5
f 327/5/5 326/5/5 325/5/5
f 328/5/5 326/5/5 327/5/5
f 331/5/5 330/5/5 329/5/5
f 332/5/5 330/5/5 331/5/5
f 335/5/5 334/5/5 333/5/5
f 336/5/5 334/5/5 335/5/5
f 339/5/5 338/5/5 337/5/5
f 340/5/5 338/5/5 339/5/5
f 343/5/5 342/5/5 341/5/5
f 344/5/5 342/5/5 343/5/5
f 347/5/5 346/5/5 345/5/5
f 348/5/5 346/5/5 347/5/5
f 351/5/5 350/5/5 349/5/5
f 352/5/5 350/5/5 351/5/5
f 355/5/5 354/5/5 353/5/5
f 356/5/5 354/5/5 355/5/5
f 359/5/5 358/5/5 357/5/5
f 360/5/5 358/5/5 359/5/5
f 363/5/5 362/5/5 361/5/5
f 364/5/5 362/5/5 363/5/5
f 365/5/6 366/5/6 367/5/6
f 367/5/6 366/5/6 368/5/6
f 369/5/6 370/5/6 371/5/6
f 371/5/6 370/5/6 372/5/6
f 373/1/6 374/1/6 375/1/6
f 375/1/6 374/1/6 376/1/6
f 377/1/6 378/1/6 379/1/6
f 379/1/6 378/1/6 380/1/6
f 381/5/6 382/5/6 383/5/6
f 383/5/6 382/5/6 384/5/6
f 385/5/6 386/5/6 387/5/6
f 387/5/6 386/5/6 388/5/6
f 389/1/6 390/1/6 391/1/6
f 391/1/6 390/1/6 392/1/6
f 393/1/6 394/1/6 395/1/6
f 395/1/6 394/1/6 396/1/6
f 397/5/6 398/5/6 399/5/6
f 399/5/6 398/5/6 400/5/6
f 401/5/6 402/5/6 403/5/6
f 403/5/6 402/5/6 404/5/6
f 405/1/6 406/1/6 407/1/6
f 407/1/6 406/1/6 408/1/6
f 409/1/6 410/1/6 411/1/6
f 411/1/6 410/1/6 412/1/6
f 413/4/6 414/4/6 415/4/6
f 415/4/6 414/4/6 416/4/6
f 417/4/6 418/4/6 419/4/6
f 419/4/6 418/4/6 420/4/6
f 421/5/6 422/5/6 423/5/6
f 423/5/6 422/5/6 424/5/6
f 425/5/6 426/5/6 427/5/6
f 427/5/6 426/5/6 428/5/6
f 429/5/6 430/5/6 431/5/6
f 431/5/6 430/5/6 432/5/6
f 433/5/6 434/5/6 435/5/6
f 435/5/6 434/5/6 436/5/6
f 437/1/6 438/1/6 439/1/6
f 439/1/6 438/1/6 440/1/6
f 439/5/6 440/5/6 441/5/6
f 441/5/6 440/5/6 442/5/6
f 443/5/6 444/5/6 445/5/6
f 445/5/6 444/5/6 446/5/6
f 445/1/6 446/1/6 447/1/6
f 447/1/6 446/1/6 448/1/6
f 449/5/6 450/5/6 451/5/6
f 451/5/6 450/5/6 452/5/6
f 453/5/6 454/5/6 455/5/6
f 455/5/6 454/5/6 456/5/6
f 457/1/6 458/1/6 459/1/6
f 459/1/6 458/1/6 460/1/6
